<?xml version="1.0" ?><svg viewBox="0 0 64 64" xmlns="http://www.w3.org/2000/svg"><title/><g data-name="Layer 4" id="Layer_4"><path d="M29.47,7.18a.93.93,0,1,1,.92.92A.93.93,0,0,1,29.47,7.18Zm4.1.92a.93.93,0,0,0,0-1.85.93.93,0,1,0,0,1.85Zm-13.81-2L23.1,3.32v-1A2.3,2.3,0,0,1,25.4,0H38.59a2.31,2.31,0,0,1,2.31,2.3v1l3.34,2.82a.3.3,0,0,1-.19.52H40.9v4.19a2.31,2.31,0,0,1-2.31,2.31H33.54L32.19,15.8a.22.22,0,0,1-.38,0l-1.35-2.64H25.4a2.3,2.3,0,0,1-2.3-2.31V6.66H19.94A.29.29,0,0,1,19.76,6.14ZM27,9a3.09,3.09,0,0,0,2.58,1.34.07.07,0,0,0,.06,0L30,9.71a.07.07,0,0,0,0-.11A5.57,5.57,0,0,1,28.4,8.4,7.65,7.65,0,0,0,32,9.54,7.65,7.65,0,0,0,35.6,8.4,5.57,5.57,0,0,1,34,9.6a.07.07,0,0,0,0,.11l.43.55a.07.07,0,0,0,.06,0A3.09,3.09,0,0,0,37,9a12.44,12.44,0,0,0-1.18-5,.3.3,0,0,0-.11-.14A4.61,4.61,0,0,0,33.36,3l0,.07a4.42,4.42,0,0,1,2.06,1s0,0,0,0a8.35,8.35,0,0,0-6.74,0s0,0,0,0a4.42,4.42,0,0,1,2.06-1l0-.07a4.61,4.61,0,0,0-2.38.76.3.3,0,0,0-.11.14A12.44,12.44,0,0,0,27,9Zm-8.78,7s0,.06,0,.09,0,0,0,.05v7.77a5,5,0,0,1-5,5H11.07a5,5,0,0,1-5-5V16.09a.8.8,0,0,1,0-.15,3.08,3.08,0,0,1,3.06-2.8h6.23A2.81,2.81,0,0,1,18.19,16Zm-2,3.95a4.9,4.9,0,0,1-3,1H8.06v3a3,3,0,0,0,3,3h2.11a3,3,0,0,0,3-3Zm-11.94,3v-4.5a1,1,0,0,0-1-1,3.25,3.25,0,0,0,0,6.5A1,1,0,0,0,4.25,22.92Zm18.83-4.75A3.23,3.23,0,0,0,21,17.42a1,1,0,0,0-1,1v4.5a1.06,1.06,0,0,0,.15.53A7.32,7.32,0,0,1,23.08,18.17Zm-19.83-3a1,1,0,0,0,1-1c0-2.5,2.16-3.64,4.16-3.64h7.43c2,0,4.16,1.14,4.16,3.64a1,1,0,0,0,2,0c0-3.27-2.59-5.64-6.16-5.64H8.41c-3.57,0-6.16,2.37-6.16,5.64A1,1,0,0,0,3.25,15.14ZM5.16,26.5H4.75a.5.5,0,0,1-.5-.5,1,1,0,0,0-2,0,2.5,2.5,0,0,0,2.5,2.5h.41a1,1,0,0,0,0-2ZM57.94,16s0,.06,0,.09,0,0,0,.05v7.77a5,5,0,0,1-5,5H50.82a5,5,0,0,1-5-5V16.09a.8.8,0,0,1,0-.15,3.08,3.08,0,0,1,3.06-2.8h6.23A2.81,2.81,0,0,1,57.94,16Zm-2,3.95a4.9,4.9,0,0,1-2.95,1H47.81v3a3,3,0,0,0,3,3h2.11a3,3,0,0,0,3-3ZM44,22.92v-4.5a1,1,0,0,0-1-1,3.23,3.23,0,0,0-2.08.75,7.32,7.32,0,0,1,2.93,5.28A1.06,1.06,0,0,0,44,22.92Zm16.75-5.5a1,1,0,0,0-1,1v4.5a1,1,0,0,0,1,1,3.25,3.25,0,0,0,0-6.5ZM42,14.14a1,1,0,0,0,2,0c0-2.5,2.16-3.64,4.16-3.64h7.43c2,0,4.16,1.14,4.16,3.64a1,1,0,0,0,2,0c0-3.27-2.59-5.64-6.16-5.64H48.16C44.59,8.5,42,10.87,42,14.14ZM57.12,30.81H46.63a4.41,4.41,0,0,0-.52,0,5.24,5.24,0,0,1-5.19,5.08,4.63,4.63,0,0,0,0,.65v3.15A7.75,7.75,0,0,1,45,46.57V54H59a3.86,3.86,0,0,0,3.86-3.85V36.57A5.77,5.77,0,0,0,57.12,30.81ZM45.53,28.28a1,1,0,0,0,.38-.78,1,1,0,0,0-1-1H44.5A.5.5,0,0,1,44,26a1,1,0,0,0-.34-.75,2.87,2.87,0,0,1-.43.74A5.05,5.05,0,0,1,45.53,28.28ZM38.06,26s0,.06,0,.09,0,0,0,.05v7.77a5,5,0,0,1-5,5H31a5,5,0,0,1-5-5V26.09a.8.8,0,0,1,0-.15A3.08,3.08,0,0,1,29,23.14h6.24A2.81,2.81,0,0,1,38.06,26Zm-2,3.95a4.88,4.88,0,0,1-3,1H27.94v3a3,3,0,0,0,3,3h2.1a3,3,0,0,0,3-3Zm-12.93,4a1,1,0,0,0,1-1v-4.5a1,1,0,0,0-1-1,3.25,3.25,0,1,0,0,6.5Zm17.75,0a3.25,3.25,0,1,0,0-6.5,1,1,0,0,0-1,1v4.5A1,1,0,0,0,40.88,33.92Zm-1-9.78a1,1,0,1,0,2,0c0-3.27-2.6-5.64-6.17-5.64H28.29c-3.57,0-6.16,2.37-6.16,5.64a1,1,0,0,0,2,0c0-2.5,2.15-3.64,4.16-3.64h7.42C37.72,20.5,39.88,21.64,39.88,24.14ZM37.24,40.81H26.76A5.77,5.77,0,0,0,21,46.57V60.15A3.86,3.86,0,0,0,24.85,64h14.3A3.86,3.86,0,0,0,43,60.15V46.57A5.77,5.77,0,0,0,37.24,40.81ZM22.64,40a4.5,4.5,0,0,1-2.52-4,2.83,2.83,0,0,1,.15-.93,5.23,5.23,0,0,1-2.38-4.24l-.52,0H6.88a5.77,5.77,0,0,0-5.76,5.76V50.15A3.86,3.86,0,0,0,5,54H19V46.57A7.72,7.72,0,0,1,22.64,40Zm2-1.52H25a1,1,0,0,0,0-2h-.4a.5.5,0,0,1-.5-.5,1,1,0,0,0-2,0A2.5,2.5,0,0,0,24.63,38.5Z"/></g></svg>