<svg width="512" height="512" xmlns="http://www.w3.org/2000/svg">

 <g>
  <title>background</title>
  <rect fill="none" id="canvas_background" height="402" width="582" y="-1" x="-1"/>
 </g>
 <g>
  <title>Layer 1</title>
  <path id="svg_2" d="m258.8,507.2c-138.4,0.6 -252.2,-114.6 -248.9,-255.3c3.1,-133.9 114,-244.7 252.1,-243.2c136.7,1.5 249.8,115.3 246.1,256.1c-3.5,133.5 -113.5,243.1 -249.3,242.4zm-218.6,-249c1.1,125.1 102.2,221.3 221.6,219.8c116.3,-1.5 215.7,-96 215.8,-219.9c0.1,-125.2 -101.9,-221.7 -221.7,-220.1c-116.3,1.6 -214.8,96.3 -215.7,220.2z"/>
  <path fill="#7f0000" id="svg_3" d="m257.7,360.3c-33.8,-1.1 -67.6,-2.1 -101.4,-3.5c-7.2,-0.3 -14.6,-1.7 -21.5,-3.8c-16.4,-5 -23.6,-18.1 -25.8,-33.7c-2.5,-17.6 -4.2,-35.4 -4.4,-53.2c-0.2,-23.9 1.3,-47.9 2.6,-71.9c0.6,-10.3 3.3,-20.5 9,-29.3c8.1,-12.7 20.8,-17 35,-17.8c65.9,-3.8 131.9,-4 197.8,-0.8c7.3,0.4 14.6,0.9 21.9,1.7c16.4,2 28.3,10.6 32.8,26.6c3.3,11.9 5.6,24.4 6,36.8c0.9,26.9 0.7,53.9 0.1,80.9c-0.3,11.2 -2.2,22.5 -4.9,33.5c-4.5,18.6 -17.3,28.8 -36.3,30.4c-16.3,1.3 -32.6,2.2 -48.9,2.5c-20.6,0.4 -41.3,0.1 -62,0.1c0,0.4 0,1 0,1.5zm51.1,-111.6c-28,-14.6 -55.1,-28.7 -82.5,-43c0,29 0,57 0,85.8c27.6,-14.3 54.7,-28.3 82.5,-42.8z"/>
 </g>
</svg>